# MagicaVoxel @ Ephtracy

# group
o 

# material
mtllib UTDLevel2.mtl
usemtl palette

# normals
vn -1 0 0
vn 1 0 0
vn 0 0 1
vn 0 0 -1
vn 0 -1 0
vn 0 1 0

# texcoords
vt 0.283203 0.5
vt 0.310547 0.5
vt 0.412109 0.5
vt 0.982422 0.5

# verts
v 0 2 0
v 0 2 -12.6
v 0 2.1 0
v 0 2.1 -0.4
v 0 2.1 -0.8
v 0 2.1 -3.1
v 0 2.1 -3.5
v 0 2.1 -12.6
v 0 4.3 -0.4
v 0 4.3 -0.8
v 0 4.3 -3.1
v 0 4.3 -3.5
v 0.4 2.1 -3.5
v 0.4 2.1 -12.6
v 0.4 4.3 -3.5
v 0.4 4.3 -12.6
v 3 2.1 -5.7
v 3 2.1 -12.6
v 3 4.3 -5.7
v 3 4.3 -12.6
v 6 2.1 -3.5
v 6 2.1 -10.2
v 6 4.3 -3.5
v 6 4.3 -10.2
v 9.4 2.1 -3.5
v 9.4 2.1 -9.8
v 9.4 3.9 -3.5
v 9.4 3.9 -9.8
v 11.8 2.1 -0.8
v 11.8 2.1 -11.8
v 11.8 4.3 -0.8
v 11.8 4.3 -11.8
v 0.8 2.1 -3.5
v 0.8 2.1 -12.6
v 0.8 4.3 -3.5
v 0.8 4.3 -12.6
v 3.4 2.1 -5.7
v 3.4 2.1 -11.8
v 3.4 2.1 -12.2
v 3.4 2.1 -12.6
v 3.4 4.3 -5.7
v 3.4 4.3 -11.8
v 3.4 4.3 -12.2
v 3.4 4.3 -12.6
v 6.4 2.1 -3.5
v 6.4 2.1 -9.8
v 6.4 3.9 -3.5
v 6.4 3.9 -9.8
v 9.8 2.1 -3.1
v 9.8 2.1 -10.2
v 9.8 4.3 -3.1
v 9.8 4.3 -10.2
v 12.2 2.1 -0.4
v 12.2 2.1 -12.2
v 12.2 4.3 -0.4
v 12.2 4.3 -12.2
v 12.6 2 0
v 12.6 2 -12.6
v 12.6 2.1 0
v 12.6 2.1 -12.6
v 0 2 0
v 0 2.1 0
v 12.6 2 0
v 12.6 2.1 0
v 0 2.1 -0.4
v 0 4.3 -0.4
v 12.2 2.1 -0.4
v 12.2 4.3 -0.4
v 0 2.1 -3.1
v 0 4.3 -3.1
v 9.8 2.1 -3.1
v 9.8 4.3 -3.1
v 3 2.1 -5.7
v 3 4.3 -5.7
v 3.4 2.1 -5.7
v 3.4 4.3 -5.7
v 6.4 2.1 -9.8
v 6.4 3.9 -9.8
v 9.4 2.1 -9.8
v 9.4 3.9 -9.8
v 3.4 2.1 -11.8
v 3.4 4.3 -11.8
v 11.8 2.1 -11.8
v 11.8 4.3 -11.8
v 0 2.1 -0.8
v 0 4.3 -0.8
v 11.8 2.1 -0.8
v 11.8 4.3 -0.8
v 0 2.1 -3.5
v 0 4.3 -3.5
v 0.4 2.1 -3.5
v 0.4 4.3 -3.5
v 0.8 2.1 -3.5
v 0.8 4.3 -3.5
v 6 2.1 -3.5
v 6 4.3 -3.5
v 6.4 2.1 -3.5
v 6.4 3.9 -3.5
v 9.4 2.1 -3.5
v 9.4 3.9 -3.5
v 6 2.1 -10.2
v 6 4.3 -10.2
v 9.8 2.1 -10.2
v 9.8 4.3 -10.2
v 3.4 2.1 -12.2
v 3.4 4.3 -12.2
v 12.2 2.1 -12.2
v 12.2 4.3 -12.2
v 0 2 -12.6
v 0 2.1 -12.6
v 0.4 2.1 -12.6
v 0.4 4.3 -12.6
v 0.8 2.1 -12.6
v 0.8 4.3 -12.6
v 3 2.1 -12.6
v 3 4.3 -12.6
v 3.4 2.1 -12.6
v 3.4 4.3 -12.6
v 12.6 2 -12.6
v 12.6 2.1 -12.6
v 0 2 0
v 12.6 2 0
v 0 2 -12.6
v 12.6 2 -12.6
v 6.4 3.9 -3.5
v 9.4 3.9 -3.5
v 6.4 3.9 -9.8
v 9.4 3.9 -9.8
v 0 2.1 0
v 12.6 2.1 0
v 0 2.1 -0.4
v 12.2 2.1 -0.4
v 0 2.1 -0.8
v 11.8 2.1 -0.8
v 0 2.1 -3.1
v 9.8 2.1 -3.1
v 0 2.1 -3.5
v 0.4 2.1 -3.5
v 0.8 2.1 -3.5
v 6 2.1 -3.5
v 6.4 2.1 -3.5
v 9.4 2.1 -3.5
v 3 2.1 -5.7
v 3.4 2.1 -5.7
v 6.4 2.1 -9.8
v 9.4 2.1 -9.8
v 6 2.1 -10.2
v 9.8 2.1 -10.2
v 3.4 2.1 -11.8
v 11.8 2.1 -11.8
v 3.4 2.1 -12.2
v 12.2 2.1 -12.2
v 0 2.1 -12.6
v 0.4 2.1 -12.6
v 0.8 2.1 -12.6
v 3 2.1 -12.6
v 3.4 2.1 -12.6
v 12.6 2.1 -12.6
v 0 4.3 -0.4
v 12.2 4.3 -0.4
v 0 4.3 -0.8
v 11.8 4.3 -0.8
v 0 4.3 -3.1
v 9.8 4.3 -3.1
v 0 4.3 -3.5
v 0.4 4.3 -3.5
v 0.8 4.3 -3.5
v 6 4.3 -3.5
v 6.4 4.3 -3.5
v 9.4 4.3 -3.5
v 3 4.3 -5.7
v 3.4 4.3 -5.7
v 6.4 4.3 -9.8
v 9.4 4.3 -9.8
v 6 4.3 -10.2
v 9.8 4.3 -10.2
v 3.4 4.3 -11.8
v 11.8 4.3 -11.8
v 3.4 4.3 -12.2
v 12.2 4.3 -12.2
v 0.4 4.3 -12.6
v 0.8 4.3 -12.6
v 3 4.3 -12.6
v 3.4 4.3 -12.6

# faces
f 3/2/1 2/2/1 1/2/1
f 4/2/1 2/2/1 3/2/1
f 5/2/1 2/2/1 4/2/1
f 6/2/1 2/2/1 5/2/1
f 7/2/1 2/2/1 6/2/1
f 8/2/1 2/2/1 7/2/1
f 9/3/1 5/3/1 4/3/1
f 10/3/1 5/3/1 9/3/1
f 11/3/1 7/3/1 6/3/1
f 12/3/1 7/3/1 11/3/1
f 15/3/1 14/3/1 13/3/1
f 16/3/1 14/3/1 15/3/1
f 19/3/1 18/3/1 17/3/1
f 20/3/1 18/3/1 19/3/1
f 23/3/1 22/3/1 21/3/1
f 24/3/1 22/3/1 23/3/1
f 27/3/1 26/3/1 25/3/1
f 28/3/1 26/3/1 27/3/1
f 31/3/1 30/3/1 29/3/1
f 32/3/1 30/3/1 31/3/1
f 33/3/2 34/3/2 35/3/2
f 35/3/2 34/3/2 36/3/2
f 37/3/2 38/3/2 41/3/2
f 41/3/2 38/3/2 42/3/2
f 39/3/2 40/3/2 43/3/2
f 43/3/2 40/3/2 44/3/2
f 45/3/2 46/3/2 47/3/2
f 47/3/2 46/3/2 48/3/2
f 49/3/2 50/3/2 51/3/2
f 51/3/2 50/3/2 52/3/2
f 53/3/2 54/3/2 55/3/2
f 55/3/2 54/3/2 56/3/2
f 57/2/2 58/2/2 59/2/2
f 59/2/2 58/2/2 60/2/2
f 63/2/3 62/2/3 61/2/3
f 64/2/3 62/2/3 63/2/3
f 67/3/3 66/3/3 65/3/3
f 68/3/3 66/3/3 67/3/3
f 71/3/3 70/3/3 69/3/3
f 72/3/3 70/3/3 71/3/3
f 75/3/3 74/3/3 73/3/3
f 76/3/3 74/3/3 75/3/3
f 79/3/3 78/3/3 77/3/3
f 80/3/3 78/3/3 79/3/3
f 83/3/3 82/3/3 81/3/3
f 84/3/3 82/3/3 83/3/3
f 85/3/4 86/3/4 87/3/4
f 87/3/4 86/3/4 88/3/4
f 89/3/4 90/3/4 91/3/4
f 91/3/4 90/3/4 92/3/4
f 93/3/4 94/3/4 95/3/4
f 95/3/4 94/3/4 96/3/4
f 97/3/4 98/3/4 99/3/4
f 99/3/4 98/3/4 100/3/4
f 101/3/4 102/3/4 103/3/4
f 103/3/4 102/3/4 104/3/4
f 105/3/4 106/3/4 107/3/4
f 107/3/4 106/3/4 108/3/4
f 109/2/4 110/2/4 111/2/4
f 109/2/4 111/2/4 113/2/4
f 111/3/4 112/3/4 113/3/4
f 113/3/4 112/3/4 114/3/4
f 109/2/4 113/2/4 115/2/4
f 109/2/4 115/2/4 117/2/4
f 115/3/4 116/3/4 117/3/4
f 117/3/4 116/3/4 118/3/4
f 109/2/4 117/2/4 119/2/4
f 119/2/4 117/2/4 120/2/4
f 123/2/5 122/2/5 121/2/5
f 124/2/5 122/2/5 123/2/5
f 127/4/5 126/4/5 125/4/5
f 128/4/5 126/4/5 127/4/5
f 129/2/6 130/2/6 131/2/6
f 131/2/6 130/2/6 132/2/6
f 133/2/6 134/2/6 135/2/6
f 135/2/6 134/2/6 136/2/6
f 139/2/6 140/2/6 143/2/6
f 143/2/6 140/2/6 144/2/6
f 141/2/6 142/2/6 145/2/6
f 145/2/6 142/2/6 146/2/6
f 144/2/6 140/2/6 147/2/6
f 136/2/6 134/2/6 148/2/6
f 144/2/6 147/2/6 149/2/6
f 147/2/6 148/2/6 149/2/6
f 148/2/6 134/2/6 150/2/6
f 149/2/6 148/2/6 150/2/6
f 132/2/6 130/2/6 152/2/6
f 137/2/6 138/2/6 153/2/6
f 153/2/6 138/2/6 154/2/6
f 139/2/6 143/2/6 155/2/6
f 155/2/6 143/2/6 156/2/6
f 151/2/6 152/2/6 157/2/6
f 152/2/6 130/2/6 158/2/6
f 157/2/6 152/2/6 158/2/6
f 159/3/6 160/3/6 161/3/6
f 161/3/6 160/3/6 162/3/6
f 163/3/6 164/3/6 165/3/6
f 165/3/6 164/3/6 166/3/6
f 166/3/6 164/3/6 167/3/6
f 167/3/6 164/3/6 168/3/6
f 168/3/6 164/3/6 169/3/6
f 169/3/6 164/3/6 170/3/6
f 169/4/6 170/4/6 173/4/6
f 168/3/6 169/3/6 173/3/6
f 170/3/6 164/3/6 174/3/6
f 173/4/6 170/4/6 174/4/6
f 168/3/6 173/3/6 175/3/6
f 173/3/6 174/3/6 175/3/6
f 174/3/6 164/3/6 176/3/6
f 175/3/6 174/3/6 176/3/6
f 171/3/6 172/3/6 177/3/6
f 162/3/6 160/3/6 178/3/6
f 171/3/6 177/3/6 179/3/6
f 177/3/6 178/3/6 179/3/6
f 178/3/6 160/3/6 180/3/6
f 179/3/6 178/3/6 180/3/6
f 166/3/6 167/3/6 181/3/6
f 181/3/6 167/3/6 182/3/6
f 171/3/6 179/3/6 183/3/6
f 183/3/6 179/3/6 184/3/6
